<svg width="1600" height="900" viewBox="0 0 1600 900" xmlns="http://www.w3.org/2000/svg" role="img" aria-label="Creative learning illustration">
  <defs>
    <linearGradient id="grad1" x1="0%" y1="0%" x2="100%" y2="100%">
      <stop offset="0%" stop-color="#7E22CE" stop-opacity="0.85"/>
      <stop offset="100%" stop-color="#FFD700" stop-opacity="0.85"/>
    </linearGradient>
    <linearGradient id="grad2" x1="0%" y1="100%" x2="100%" y2="0%">
      <stop offset="0%" stop-color="#0EA5E9" stop-opacity="0.9"/>
      <stop offset="100%" stop-color="#22D3EE" stop-opacity="0.8"/>
    </linearGradient>
    <linearGradient id="grad3" x1="0%" y1="50%" x2="100%" y2="50%">
      <stop offset="0%" stop-color="#F472B6" stop-opacity="0.85"/>
      <stop offset="100%" stop-color="#FB7185" stop-opacity="0.8"/>
    </linearGradient>
    <filter id="blur" x="-20%" y="-20%" width="140%" height="140%">
      <feGaussianBlur stdDeviation="60"/>
    </filter>
  </defs>

  <rect width="1600" height="900" fill="#F8FAFC"/>

  <circle cx="400" cy="240" r="320" fill="url(#grad1)" filter="url(#blur)" opacity="0.65"/>
  <circle cx="1250" cy="180" r="260" fill="url(#grad2)" filter="url(#blur)" opacity="0.7"/>
  <circle cx="900" cy="620" r="320" fill="url(#grad3)" filter="url(#blur)" opacity="0.6"/>

  <g stroke="rgba(255,255,255,0.6)" stroke-width="4" fill="none">
    <path d="M200 520 C 450 360, 750 360, 1000 520" />
    <path d="M250 650 C 520 480, 820 470, 1100 640" opacity="0.7"/>
    <path d="M300 770 C 600 620, 900 610, 1220 760" opacity="0.5"/>
  </g>

  <g fill="white" opacity="0.9">
    <rect x="520" y="360" width="560" height="300" rx="32"/>
    <circle cx="760" cy="420" r="40" fill="#7E22CE" opacity="0.9"/>
    <rect x="600" y="500" width="320" height="24" rx="12" fill="#CBD5F5"/>
    <rect x="600" y="540" width="400" height="24" rx="12" fill="#E0E7FF"/>
    <rect x="600" y="580" width="260" height="24" rx="12" fill="#FDE68A"/>
  </g>
</svg>
